<?xml version="1.0" standalone="no"?>
<!DOCTYPE svg PUBLIC "-//W3C//DTD SVG 20010904//EN"
 "http://www.w3.org/TR/2001/REC-SVG-20010904/DTD/svg10.dtd">
<svg version="1.0" xmlns="http://www.w3.org/2000/svg"
 width="224.000000pt" height="224.000000pt" viewBox="0 0 224.000000 224.000000"
 preserveAspectRatio="xMidYMid meet">
<metadata>
Created by potrace 1.14, written by Peter Selinger 2001-2017
</metadata>
<g transform="translate(0.000000,224.000000) scale(0.100000,-0.100000)"
fill="#000000" stroke="none">
<path d="M571 1831 c-35 -23 -2 -98 37 -84 12 5 14 2 9 -11 -18 -46 42 -75 67
-33 9 15 7 22 -13 38 -12 10 -27 17 -31 14 -5 -3 -3 9 3 26 11 27 10 32 -7 45
-23 16 -45 18 -65 5z m52 -23 c7 -21 -4 -38 -24 -38 -14 0 -19 7 -19 25 0 18
5 25 19 25 11 0 21 -6 24 -12z m37 -98 c0 -5 -2 -10 -4 -10 -3 0 -8 5 -11 10
-3 6 -1 10 4 10 6 0 11 -4 11 -10z"/>
<path d="M675 1824 c-11 -11 -13 -20 -5 -28 5 -7 7 -16 3 -20 -4 -4 8 -4 27
-1 43 8 44 9 36 40 -7 29 -36 33 -61 9z m41 -5 c10 -17 -13 -36 -27 -22 -12
12 -4 33 11 33 5 0 12 -5 16 -11z"/>
<path d="M492 1821 c-8 -4 -12 -19 -10 -32 3 -23 9 -25 49 -20 6 0 9 13 7 28
-3 29 -23 39 -46 24z m29 -24 c-1 -12 -15 -9 -19 4 -3 6 1 10 8 8 6 -3 11 -8
11 -12z"/>
<path d="M1480 1810 c-14 -4 -21 -8 -16 -9 5 -1 2 -8 -5 -18 -10 -11 -10 -17
-3 -20 6 -2 9 -16 7 -31 -4 -22 -2 -24 7 -12 7 10 13 11 16 4 6 -15 54 -5 54
11 0 7 6 16 13 19 9 5 9 7 -1 12 -10 5 -10 9 -1 20 9 11 6 16 -16 24 -14 5
-27 10 -28 9 -1 -1 -13 -5 -27 -9z m48 -46 c-2 -11 -12 -19 -23 -19 -27 0 -34
42 -8 47 24 6 36 -5 31 -28z"/>
<path d="M801 1793 c-9 -15 -12 -16 -20 -4 -11 17 -32 5 -24 -14 3 -10 -1 -15
-14 -15 -27 0 -35 -10 -22 -26 9 -10 7 -15 -5 -20 -17 -7 -22 -34 -6 -34 6 0
8 -11 4 -25 -5 -21 -3 -25 15 -25 13 0 19 -5 15 -14 -7 -19 16 -32 27 -15 6
11 9 10 15 -4 7 -18 34 -24 34 -7 0 6 10 8 24 4 18 -4 25 -1 28 12 1 10 13 18
25 19 17 1 20 -1 12 -11 -5 -7 -7 -24 -3 -38 4 -16 2 -26 -5 -26 -6 0 -8 7 -5
15 4 9 0 15 -10 15 -9 0 -16 -5 -16 -11 0 -6 -9 -8 -20 -4 -14 5 -20 2 -20 -9
0 -9 -8 -16 -19 -16 -14 0 -18 -5 -14 -20 3 -11 1 -20 -4 -20 -6 0 -10 -13 -9
-30 1 -17 6 -30 14 -30 7 0 12 -8 10 -17 -2 -13 3 -17 16 -15 10 2 22 -2 27
-9 6 -10 11 -10 23 0 11 9 16 10 16 2 0 -6 6 -11 14 -11 8 0 13 8 12 18 -1 11
5 16 18 14 13 -3 17 1 13 12 -8 20 10 31 28 16 11 -9 9 -15 -12 -36 -23 -23
-24 -27 -10 -47 30 -45 95 -21 82 30 -4 16 -2 22 5 18 5 -3 10 -1 10 4 0 6 3
10 8 9 4 -2 7 1 7 7 0 14 -28 12 -47 -4 -10 -8 -18 -9 -18 -4 0 6 7 16 15 23
8 7 15 19 15 27 0 14 -11 13 -56 -4 -18 -7 -26 14 -15 34 6 10 11 13 11 7 0
-15 68 -23 73 -9 3 5 7 7 11 4 4 -3 2 -18 -4 -33 -5 -15 -6 -25 -1 -22 14 9
41 -4 41 -20 0 -8 5 -14 10 -14 6 0 10 5 10 10 0 6 5 10 11 10 8 0 7 -5 -2
-16 -11 -13 -10 -17 4 -26 12 -6 16 -16 12 -29 -9 -27 3 -43 21 -28 11 9 15 7
21 -7 11 -30 26 -34 41 -12 10 14 17 17 25 9 20 -20 36 -12 34 16 -1 15 3 28
8 28 6 0 16 4 24 9 11 7 9 12 -10 26 -19 15 -21 21 -10 34 11 13 11 17 -2 22
-9 3 -21 3 -27 -1 -5 -3 -15 6 -20 21 l-11 27 -20 -21 c-16 -18 -23 -20 -38
-10 -15 9 -16 15 -7 34 6 13 14 24 19 24 14 0 7 19 -10 24 -14 4 -14 4 2 3 11
-1 26 2 33 7 9 5 13 3 11 -5 -3 -28 1 -39 21 -49 28 -15 60 4 60 34 0 31 -24
50 -55 42 -20 -5 -23 -3 -18 11 4 10 11 21 17 25 7 5 7 8 -1 8 -7 0 -13 7 -13
16 0 21 19 7 31 -23 5 -13 15 -23 21 -21 7 3 19 -1 26 -9 15 -15 32 -17 32 -4
0 4 11 6 25 3 18 -3 25 0 25 11 0 8 8 14 18 13 12 -1 16 5 15 22 -2 14 3 22
12 22 18 0 20 27 3 33 -10 3 -10 8 1 21 13 15 12 18 -7 23 -12 3 -19 9 -16 15
7 12 -16 39 -27 32 -5 -3 -9 0 -9 5 0 6 -9 11 -20 11 -11 0 -20 -5 -20 -11 0
-8 -4 -8 -15 1 -16 13 -35 6 -35 -15 0 -9 -7 -11 -22 -7 -18 4 -20 2 -16 -16
4 -13 0 -23 -8 -26 -16 -6 -19 -36 -3 -36 5 0 7 -4 4 -10 -10 -16 -23 -12 -30
9 -3 11 -13 22 -21 25 -10 4 -13 2 -8 -6 4 -7 3 -8 -4 -4 -13 8 -57 -28 -58
-47 0 -7 3 -20 8 -29 6 -12 3 -18 -11 -23 -31 -10 -43 -30 -32 -56 6 -18 5
-28 -7 -38 -14 -13 -15 -13 -10 5 3 11 0 27 -6 35 -14 19 -46 32 -46 19 0 -6
-10 -10 -21 -10 -18 0 -19 2 -9 15 9 11 9 19 2 28 -6 7 -10 26 -8 42 5 42 -2
53 -34 60 -16 3 -31 13 -34 21 -3 8 -12 14 -21 14 -10 0 -15 7 -13 18 2 12 -3
16 -17 15 -11 -1 -24 5 -28 13 -11 19 -24 18 -36 -3z m51 -56 c26 -20 27 -66
2 -91 -36 -36 -104 -6 -104 46 0 44 65 73 102 45z m516 -40 c-2 -16 -10 -22
-28 -22 -28 0 -39 27 -20 50 18 21 52 1 48 -28z m-179 -16 c9 -6 6 -8 -13 -8
-14 0 -23 3 -20 8 7 11 15 11 33 0z m-239 -11 c0 -5 -7 -10 -16 -10 -8 0 -12
5 -9 10 3 6 10 10 16 10 5 0 9 -4 9 -10z m250 -24 c0 -2 -9 -6 -20 -9 -11 -3
-18 -1 -14 4 5 9 34 13 34 5z m-242 -51 c-3 -3 -9 2 -12 12 -6 14 -5 15 5 6 7
-7 10 -15 7 -18z m192 -16 c0 -5 -4 -9 -9 -9 -5 0 -16 -3 -25 -6 -10 -4 -16
-1 -16 9 0 8 6 17 13 20 16 5 37 -3 37 -14z m-185 -19 c-3 -5 -11 -10 -16 -10
-6 0 -7 5 -4 10 3 6 11 10 16 10 6 0 7 -4 4 -10z m81 -11 c8 -14 -11 -33 -25
-25 -11 7 -4 36 9 36 5 0 12 -5 16 -11z m-145 -22 c44 -34 24 -97 -31 -97 -34
0 -50 17 -50 55 0 23 6 35 23 43 29 14 39 14 58 -1z m49 -1 c-7 -7 -14 -6 -21
1 -9 9 -7 12 9 10 14 -1 18 -5 12 -11z m200 4 c0 -5 -8 -10 -17 -10 -15 0 -16
2 -3 10 19 12 20 12 20 0z m-35 -30 c3 -5 1 -10 -4 -10 -6 0 -11 5 -11 10 0 6
2 10 4 10 3 0 8 -4 11 -10z m-25 -20 c0 -5 -5 -10 -11 -10 -5 0 -7 5 -4 10 3
6 8 10 11 10 2 0 4 -4 4 -10z m63 -35 c-7 -21 -13 -19 -13 6 0 11 4 18 10 14
5 -3 7 -12 3 -20z m97 -38 c0 -42 -38 -61 -66 -33 -21 22 -17 55 9 65 29 11
57 -4 57 -32z m-241 -6 c19 -12 6 -41 -19 -41 -13 0 -20 7 -20 18 0 31 14 39
39 23z"/>
<path d="M784 1705 c-10 -25 4 -45 30 -45 13 0 26 7 30 15 9 25 -5 45 -30 45
-14 0 -27 -7 -30 -15z"/>
<path d="M986 1391 c-4 -7 -5 -15 -2 -18 9 -9 19 4 14 18 -4 11 -6 11 -12 0z"/>
<path d="M967 1803 c-4 -3 -1 -13 6 -21 10 -13 9 -15 -7 -9 -10 4 -24 2 -32
-4 -16 -13 -7 -39 13 -39 12 0 13 3 4 14 -7 8 -8 17 -3 20 10 6 42 -35 42 -54
0 -6 5 -8 10 -5 6 3 10 -1 10 -10 0 -9 5 -13 10 -10 16 10 12 -5 -10 -32 -16
-21 -17 -27 -6 -38 13 -14 29 -18 56 -16 15 1 23 41 8 41 -4 0 -4 7 -1 17 4
10 2 14 -5 9 -6 -3 -13 -2 -17 4 -3 5 5 12 19 16 13 3 27 12 30 20 4 10 14 12
31 8 21 -5 25 -3 25 17 0 19 2 21 10 9 6 -9 10 -10 10 -3 0 6 8 14 18 16 12 3
11 5 -6 6 -13 0 -21 5 -18 9 15 24 -30 43 -66 27 -11 -4 -18 -3 -18 5 0 14
-71 10 -82 -5 -5 -6 -8 -5 -8 3 0 13 -13 16 -23 5z m155 -19 c-5 -9 -7 -25 -5
-35 3 -11 1 -19 -3 -19 -14 0 -14 54 -1 62 18 11 19 10 9 -8z m-54 -16 c16
-16 15 -23 -4 -42 -19 -20 -54 -5 -54 24 0 28 37 39 58 18z m82 2 c0 -5 -2
-10 -4 -10 -3 0 -8 5 -11 10 -3 6 -1 10 4 10 6 0 11 -4 11 -10z m-98 -152
c-16 -16 -37 4 -28 28 6 16 8 16 23 1 13 -13 15 -19 5 -29z"/>
<path d="M1026 1753 c-9 -23 16 -36 34 -17 13 13 13 16 0 24 -21 14 -27 12
-34 -7z"/>
<path d="M1576 1774 c-9 -22 17 -49 39 -40 10 3 15 15 13 28 -4 29 -42 37 -52
12z"/>
<path d="M443 1743 c-7 -2 -13 -13 -13 -23 0 -13 -5 -17 -19 -13 -23 6 -37
-13 -21 -32 9 -11 7 -16 -9 -25 -24 -12 -28 -40 -6 -40 8 0 15 -4 15 -10 0
-15 -11 -12 -32 6 -14 14 -20 14 -33 4 -25 -20 -19 -50 10 -50 14 0 25 6 25
13 0 6 5 4 11 -6 8 -14 8 -22 0 -30 -8 -8 -11 -8 -11 1 0 7 -4 12 -10 12 -5 0
-10 -7 -10 -15 0 -8 7 -15 15 -15 8 0 19 -8 24 -18 7 -14 5 -21 -9 -30 -22
-13 -35 -1 -35 32 0 11 -6 21 -14 24 -10 3 -12 0 -8 -11 3 -9 2 -17 -4 -19 -6
-2 -4 -14 3 -31 7 -15 18 -25 24 -23 6 3 17 -1 23 -7 8 -8 11 -8 11 0 0 6 9
13 20 16 12 3 18 11 15 19 -3 7 8 20 25 30 24 14 30 14 30 3 0 -23 20 -28 41
-9 11 10 19 12 19 6 0 -7 9 -12 20 -12 13 0 20 7 20 20 0 15 6 19 23 17 18 -2
22 2 20 26 -1 18 3 27 13 27 17 0 19 37 3 42 -9 3 -9 9 -1 25 13 23 7 33 -20
33 -12 0 -17 7 -15 23 2 18 -2 22 -26 20 -15 -1 -25 2 -22 8 10 16 -24 22 -42
8 -13 -11 -17 -11 -20 -1 -5 13 -10 14 -30 5z m108 -82 c11 -13 19 -34 19 -47
0 -23 -33 -63 -54 -65 -50 -6 -86 25 -86 72 0 61 82 88 121 40z m-143 -118
c-1 -10 1 -24 5 -30 5 -8 4 -13 -3 -13 -14 0 -24 26 -16 45 8 21 18 19 14 -2z"/>
<path d="M472 1648 c-22 -22 -14 -57 14 -64 38 -10 61 17 46 51 -12 27 -40 33
-60 13z"/>
<path d="M1560 1714 c0 -12 -7 -14 -30 -9 -27 6 -30 4 -30 -19 0 -16 -6 -26
-14 -26 -22 0 -29 -19 -14 -37 10 -13 10 -17 1 -20 -19 -7 -16 -43 3 -43 8 0
13 -4 10 -9 -4 -5 -21 -9 -38 -8 -25 2 -33 7 -38 27 l-6 25 -19 -22 c-20 -24
-45 -31 -45 -13 0 6 -5 10 -11 10 -6 0 -9 -7 -5 -15 8 -21 -3 -45 -20 -45 -19
0 -18 -20 3 -35 15 -11 15 -15 4 -29 -14 -16 -9 -20 22 -17 10 2 21 -8 28 -26
l10 -28 17 22 c12 16 21 20 32 13 21 -13 31 -2 24 26 -5 20 -2 24 15 24 12 0
21 6 21 15 0 8 -7 15 -15 15 -17 0 -20 26 -4 36 6 3 15 0 20 -7 4 -8 16 -14
26 -14 10 0 17 -6 15 -13 -3 -17 27 -27 41 -13 15 15 27 14 27 -2 0 -20 29
-16 36 5 6 19 24 25 24 8 0 -7 7 -7 21 0 13 7 18 17 15 27 -4 10 -2 13 8 10
17 -7 28 27 13 42 -8 8 -6 15 8 24 19 15 13 37 -11 37 -16 0 -19 16 -4 25 7 4
6 13 -1 26 -8 16 -13 18 -25 8 -13 -11 -19 -6 -15 15 3 17 -22 24 -42 13 -15
-9 -21 -9 -24 1 -7 18 -33 15 -33 -4z m79 -70 c33 -43 26 -86 -18 -108 -53
-28 -113 20 -95 77 18 61 77 77 113 31z m-224 -134 c38 -42 -19 -94 -59 -54
-9 8 -16 22 -16 29 0 17 27 45 44 45 7 0 21 -9 31 -20z"/>
<path d="M1562 1628 c-27 -27 -9 -61 38 -70 22 -4 25 0 27 26 4 48 -35 74 -65
44z"/>
<path d="M1082 1668 c6 -18 28 -21 28 -4 0 9 -7 16 -16 16 -9 0 -14 -5 -12
-12z"/>
<path d="M652 1658 c-16 -16 -15 -25 4 -32 14 -5 15 -4 4 9 -15 18 1 20 18 3
8 -8 12 -8 12 -1 0 20 -25 34 -38 21z"/>
<path d="M1100 1629 c0 -5 5 -7 10 -4 6 3 10 8 10 11 0 2 -4 4 -10 4 -5 0 -10
-5 -10 -11z"/>
<path d="M672 1611 c-10 -6 -15 -26 -13 -47 2 -18 35 -23 49 -8 28 30 -2 76
-36 55z m28 -31 c0 -5 -4 -10 -10 -10 -5 0 -10 5 -10 10 0 6 5 10 10 10 6 0
10 -4 10 -10z"/>
<path d="M741 1570 c-19 -11 -9 -45 14 -45 13 0 21 8 23 21 3 23 -17 37 -37
24z"/>
<path d="M1743 1565 c-22 -15 -21 -55 1 -55 6 -1 -3 -7 -20 -14 -40 -18 -49
-50 -21 -76 24 -23 37 -25 59 -7 23 19 29 45 13 61 -19 19 -19 32 0 40 19 7
20 40 2 54 -10 9 -19 8 -34 -3z m27 -30 c0 -8 -4 -15 -10 -15 -5 0 -10 7 -10
15 0 8 5 15 10 15 6 0 10 -7 10 -15z m-14 -94 c-4 -6 -16 -11 -27 -11 -21 0
-27 35 -6 43 16 6 41 -18 33 -32z"/>
<path d="M634 1531 c9 -13 -19 -32 -38 -25 -17 7 -22 -11 -6 -21 16 -10 12
-23 -10 -30 -25 -8 -26 -25 -1 -32 22 -6 35 -29 20 -38 -5 -4 -7 -11 -3 -16 4
-6 11 -6 20 2 7 6 22 8 31 5 15 -6 15 -8 3 -16 -8 -6 -26 -10 -38 -10 -15 0
-26 -7 -29 -19 -3 -12 -11 -17 -19 -14 -13 5 -12 8 2 24 16 17 16 19 0 25 -9
3 -16 11 -15 18 3 26 -2 38 -15 33 -8 -3 -16 2 -19 15 -4 15 -11 18 -26 13
-12 -4 -21 -2 -21 4 0 17 -27 13 -34 -5 -3 -8 -11 -12 -16 -9 -16 10 -63 -41
-56 -60 3 -8 1 -15 -4 -15 -14 0 -12 -28 3 -37 6 -4 12 -17 12 -28 0 -13 6
-19 17 -17 20 3 18 -15 -4 -46 -19 -28 -13 -59 14 -73 29 -16 68 13 68 51 0
29 13 40 25 20 3 -5 2 -10 -3 -10 -13 0 -20 -55 -10 -74 12 -21 34 -20 56 2
18 18 67 28 57 12 -9 -15 15 -22 30 -10 12 10 16 9 21 -4 7 -18 34 -22 34 -6
0 6 8 10 17 8 11 -2 19 6 23 21 l5 24 13 -28 c9 -19 10 -31 2 -40 -8 -9 -6
-14 6 -19 13 -5 14 -9 4 -21 -12 -15 -12 -16 13 -19 6 -1 11 -10 9 -20 -3 -14
1 -17 14 -12 9 3 23 1 31 -6 11 -9 16 -9 22 0 4 7 15 10 24 6 12 -4 17 -1 17
10 0 9 7 16 16 16 11 0 14 5 10 17 -4 9 -2 19 3 23 7 4 6 24 -3 57 -8 28 -10
56 -6 63 4 7 10 -3 14 -27 14 -76 47 -145 65 -135 3 2 7 -1 9 -7 2 -6 -3 -8
-11 -5 -11 4 -17 -2 -20 -18 -4 -21 -4 -22 -6 -2 -1 22 -26 39 -42 28 -15 -9
-10 -44 7 -44 20 0 47 -27 39 -40 -10 -16 45 -33 61 -19 8 6 14 8 14 4 0 -4 6
-3 13 3 18 15 43 -24 27 -43 -15 -17 -2 -45 21 -45 24 0 36 27 22 49 -14 23
-5 40 17 34 12 -3 20 0 20 7 0 7 7 10 16 6 19 -7 44 10 44 29 0 22 -32 27 -52
8 -12 -11 -37 -18 -62 -18 -42 -1 -43 -1 -39 29 6 54 55 82 113 65 10 -3 16 5
18 24 2 17 -1 27 -10 27 -9 0 -9 3 2 10 22 14 27 12 34 -12 6 -23 6 -23 24 -3
20 23 52 29 52 9 0 -8 7 -14 16 -14 11 0 14 -8 12 -32 -3 -29 0 -32 22 -33 18
0 24 -5 22 -17 -4 -22 26 -24 34 -3 7 18 31 20 36 3 2 -6 10 -8 16 -4 8 4 10
16 7 28 -5 14 -1 21 14 25 22 6 29 33 9 33 -10 0 -10 2 0 9 7 4 16 21 20 36 9
31 32 47 32 21 0 -21 21 -31 31 -15 8 12 10 12 18 0 6 -9 18 -11 35 -7 19 5
24 3 20 -8 -3 -7 3 -16 13 -20 10 -4 19 -2 21 4 3 7 9 5 16 -6 10 -14 15 -14
27 -3 8 8 23 14 34 14 13 0 19 6 17 17 -2 12 2 16 11 12 8 -3 17 3 21 13 4 10
2 19 -4 21 -7 3 -4 10 7 18 16 12 16 15 3 27 -8 6 -15 20 -15 30 0 9 -4 17 -9
16 -14 -1 -26 24 -21 42 3 9 -4 24 -16 35 -21 19 -21 19 -44 -9 -15 -16 -26
-23 -30 -16 -4 6 -13 8 -21 5 -8 -3 -14 1 -14 8 0 18 -27 29 -33 13 -3 -9 -7
-9 -19 1 -9 7 -23 9 -33 6 -13 -5 -14 -9 -3 -16 9 -6 6 -8 -11 -6 -19 2 -26
-3 -30 -20 -4 -13 -10 -22 -16 -20 -5 2 -11 -5 -13 -14 -2 -10 1 -18 7 -18 8
0 7 -7 -1 -21 -10 -17 -10 -23 0 -26 6 -3 12 -17 12 -31 0 -18 -3 -23 -8 -14
-7 9 -15 10 -35 3 -24 -9 -27 -8 -27 10 0 14 5 19 14 16 20 -8 28 4 14 20 -9
11 -9 17 3 24 12 8 11 11 -3 19 -9 6 -15 17 -12 24 3 8 -4 16 -16 19 -12 3
-20 10 -17 14 3 5 -10 9 -29 9 -19 0 -34 -4 -34 -9 0 -4 -9 -5 -20 -2 -16 5
-20 2 -20 -15 0 -12 -4 -19 -9 -15 -5 3 -12 1 -15 -4 -4 -5 -2 -13 4 -16 8 -5
7 -12 -2 -23 -10 -12 -10 -16 0 -19 6 -3 12 -11 12 -19 0 -10 -9 -13 -32 -10
-23 3 -40 -3 -58 -18 -15 -13 -19 -15 -11 -3 7 9 10 17 5 17 -5 0 -3 4 4 8 8
6 10 19 6 40 -4 17 -10 29 -15 26 -5 -3 -9 0 -9 6 0 22 -55 5 -72 -22 -20 -31
-53 -29 -55 4 -2 19 -1 19 11 3 15 -21 36 -12 36 16 0 10 5 28 12 38 9 15 9
23 -1 35 -19 23 -58 20 -66 -4 -6 -20 -50 -70 -62 -70 -3 0 -3 7 1 15 3 8 2
15 -2 16 -4 0 -18 2 -31 5 -14 2 -28 -1 -33 -8 -5 -8 -6 -2 -2 14 5 21 2 29
-11 34 -23 9 -38 -17 -20 -35 10 -10 11 -21 4 -38 -5 -14 -7 -28 -4 -33 3 -4
-1 -10 -9 -13 -20 -8 -28 20 -11 37 21 21 18 36 -6 36 -17 0 -20 4 -15 24 8
31 -3 40 -26 19 -18 -16 -19 -16 -25 5 -7 28 -30 28 -38 1 -5 -14 -13 -19 -26
-16 -10 3 -23 -1 -30 -9 -19 -23 -29 -16 -17 12 9 20 17 24 35 19 25 -6 30 4
12 22 -8 8 -5 17 10 32 25 25 26 31 7 31 -21 0 -38 24 -25 37 8 8 7 13 -2 19
-7 4 -14 3 -17 -4 -5 -17 -32 -15 -38 3 -4 8 -13 15 -21 15 -8 0 -12 -4 -9 -9z
m56 -55 c28 -35 -11 -93 -47 -70 -36 22 -23 84 17 84 10 0 23 -7 30 -14z
m-202 -127 c4 -30 -22 -46 -44 -28 -17 14 -18 31 -2 47 19 19 43 9 46 -19z
m602 6 c0 -8 -4 -15 -9 -15 -13 0 -22 16 -14 24 11 11 23 6 23 -9z m646 4 c10
-17 -13 -36 -27 -22 -12 12 -4 33 11 33 5 0 12 -5 16 -11z m-921 -36 c3 -10 1
-19 -5 -21 -6 -2 -17 -11 -25 -19 -9 -8 -23 -12 -32 -8 -14 5 -15 8 -4 14 7 5
10 14 7 20 -11 17 2 31 29 31 12 0 26 -8 30 -17z m799 1 c28 -27 13 -42 -21
-21 -7 4 -21 3 -32 -2 -24 -13 -17 -51 11 -58 20 -6 25 -33 5 -33 -7 0 -23 7
-35 16 -33 23 -30 74 6 96 34 22 46 22 66 2z m-215 -16 c12 -12 19 -30 16 -42
-2 -12 -4 -24 -4 -27 -1 -4 -15 -12 -32 -20 -29 -12 -33 -11 -50 10 -29 36
-24 81 11 94 27 10 39 7 59 -15z m-359 2 c0 -5 -2 -10 -4 -10 -3 0 -8 5 -11
10 -3 6 -1 10 4 10 6 0 11 -4 11 -10z m-332 -68 c-10 -12 -14 -10 -21 12 -5
14 -13 26 -18 26 -4 0 -6 7 -3 15 5 11 11 8 30 -12 19 -21 22 -29 12 -41z
m249 52 c8 -21 -13 -42 -28 -27 -13 13 -5 43 11 43 6 0 13 -7 17 -16z m-399
-12 c9 -6 6 -12 -12 -22 -14 -7 -23 -16 -21 -20 2 -4 -2 -16 -10 -26 -13 -18
-14 -17 -8 6 3 14 10 30 15 37 5 7 7 17 3 23 -7 12 14 13 33 2z m67 -22 c3 -5
1 -10 -4 -10 -6 0 -11 5 -11 10 0 6 2 10 4 10 3 0 8 -4 11 -10z m398 -30 c5 0
15 -7 22 -17 16 -21 45 -10 45 17 0 11 5 20 10 20 6 0 10 -9 10 -19 0 -11 9
-23 21 -26 15 -5 18 -10 10 -18 -8 -8 -14 -8 -23 1 -18 18 -38 14 -38 -8 0
-25 29 -38 41 -19 14 22 11 -12 -3 -44 -13 -28 -35 -38 -24 -12 3 8 1 15 -4
15 -6 0 -10 -4 -10 -9 0 -5 -10 -11 -22 -13 -26 -3 -37 -36 -16 -49 10 -7 10
-9 -3 -9 -25 0 -41 21 -27 37 13 16 19 75 6 67 -13 -8 -76 45 -74 64 1 21 18
42 29 35 4 -2 10 4 14 13 6 16 8 15 16 -4 6 -12 14 -22 20 -22z m151 32 c2 -4
1 -14 -3 -20 -10 -16 -41 -5 -41 14 0 15 35 20 44 6z m550 -14 c8 -14 7 -21
-5 -33 -18 -19 -45 -11 -52 15 -10 38 35 52 57 18z m-649 -18 c-3 -5 -11 -10
-16 -10 -6 0 -7 5 -4 10 3 6 11 10 16 10 6 0 7 -4 4 -10z m-627 -23 c4 -20
-25 -34 -40 -19 -15 15 -1 44 19 40 10 -2 19 -11 21 -21z m332 13 c0 -5 -7
-10 -15 -10 -8 0 -15 5 -15 10 0 6 7 10 15 10 8 0 15 -4 15 -10z m65 -2 c-11
-6 -23 -16 -26 -21 -4 -5 -13 -7 -20 -5 -9 3 -3 10 16 21 34 18 61 23 30 5z
m-209 -25 c-10 -10 -19 5 -10 18 6 11 8 11 12 0 2 -7 1 -15 -2 -18z m48 8 c3
-5 -1 -11 -9 -15 -9 -3 -15 0 -15 9 0 16 16 20 24 6z m639 -12 c4 -16 3 -18
-9 -8 -16 13 -19 29 -5 29 5 0 11 -9 14 -21z m-96 4 c-4 -3 -1 -13 6 -21 10
-13 9 -14 -3 -10 -19 6 -26 38 -9 38 7 0 9 -3 6 -7z m47 -8 c-7 -16 -24 -21
-24 -6 0 8 7 13 27 20 1 1 0 -6 -3 -14z m-754 -15 c0 -5 -5 -10 -11 -10 -5 0
-7 5 -4 10 3 6 8 10 11 10 2 0 4 -4 4 -10z m328 -16 c41 -20 43 -60 6 -88 -25
-18 -27 -18 -52 1 -33 25 -38 47 -18 78 19 29 23 30 64 9z m557 -4 c3 -5 -1
-10 -10 -10 -9 0 -13 5 -10 10 3 6 8 10 10 10 2 0 7 -4 10 -10z m-10 -30 c8 0
18 7 23 17 9 14 10 14 17 -6 5 -16 2 -26 -12 -36 -38 -29 -81 -6 -68 36 7 20
8 20 17 6 5 -10 15 -17 23 -17z m-389 -1 c3 -6 -1 -18 -10 -27 -12 -13 -18
-13 -28 -4 -9 9 -7 12 10 12 12 0 22 5 22 11 0 6 -9 9 -20 6 -11 -3 -18 -1
-14 4 7 12 31 11 40 -2z m17 -105 c11 -11 -5 -34 -24 -34 -18 0 -26 20 -12 33
8 9 28 9 36 1z m167 -24 c0 -5 -2 -10 -4 -10 -3 0 -8 5 -11 10 -3 6 -1 10 4
10 6 0 11 -4 11 -10z m-90 -24 c0 -3 -4 -8 -10 -11 -5 -3 -10 -1 -10 4 0 6 5
11 10 11 6 0 10 -2 10 -4z m0 -66 c0 -5 -4 -10 -10 -10 -5 0 -10 5 -10 10 0 6
5 10 10 10 6 0 10 -4 10 -10z"/>
<path d="M964 1215 c-8 -19 3 -35 26 -35 22 0 33 23 17 39 -15 15 -37 14 -43
-4z m36 -9 c0 -3 -4 -8 -10 -11 -5 -3 -10 -1 -10 4 0 6 5 11 10 11 6 0 10 -2
10 -4z"/>
<path d="M1479 1444 c-17 -21 0 -49 32 -49 18 0 25 6 27 24 6 38 -34 55 -59
25z m41 -24 c0 -5 -4 -10 -10 -10 -5 0 -10 5 -10 10 0 6 5 10 10 10 6 0 10 -4
10 -10z"/>
<path d="M1560 1445 c-14 -16 -5 -35 16 -35 15 0 20 35 5 44 -5 3 -14 -1 -21
-9z m20 -15 c0 -5 -4 -10 -10 -10 -5 0 -10 5 -10 10 0 6 5 10 10 10 6 0 10 -4
10 -10z"/>
<path d="M1623 1453 c-20 -7 -15 -51 6 -62 28 -16 56 9 47 42 -6 26 -24 32
-53 20z m37 -27 c0 -3 -4 -8 -10 -11 -5 -3 -10 -1 -10 4 0 6 5 11 10 11 6 0
10 -2 10 -4z"/>
<path d="M1436 1381 c-10 -16 5 -41 24 -41 10 0 20 6 23 14 10 25 -33 50 -47
27z"/>
<path d="M1213 1284 c-6 -17 14 -36 32 -31 6 2 11 13 13 25 3 17 -2 22 -18 22
-11 0 -23 -7 -27 -16z"/>
<path d="M1855 1210 c-3 -5 -12 -7 -20 -3 -9 3 -15 -1 -15 -10 0 -8 -4 -17 -9
-19 -14 -5 0 -58 15 -58 8 0 14 -6 14 -14 0 -12 4 -12 30 1 17 8 28 18 25 23
-3 5 -1 11 3 14 5 3 7 16 5 29 -5 26 -39 52 -48 37z m25 -36 c11 -12 10 -18
-3 -32 -16 -15 -18 -15 -34 0 -13 14 -14 20 -3 32 7 9 16 16 20 16 4 0 13 -7
20 -16z"/>
<path d="M331 1171 c-16 -10 -7 -47 14 -55 8 -3 21 1 29 9 7 8 17 11 21 7 4
-4 0 5 -10 21 -18 28 -31 33 -54 18z m39 -21 c0 -5 -7 -10 -15 -10 -8 0 -15 5
-15 10 0 6 7 10 15 10 8 0 15 -4 15 -10z"/>
<path d="M550 1135 c-7 -9 -8 -15 -2 -15 6 0 13 6 15 13 4 7 6 6 6 -5 1 -9 -5
-19 -11 -21 -8 -4 -7 -6 3 -6 22 -1 31 25 15 38 -10 8 -17 7 -26 -4z"/>
<path d="M1570 1134 c0 -12 -7 -14 -32 -9 -27 6 -30 5 -24 -10 8 -22 -11 -46
-30 -38 -8 3 -14 -1 -14 -11 0 -9 7 -16 16 -16 13 0 15 -7 11 -30 -6 -28 -5
-30 24 -30 23 0 30 -4 26 -14 -3 -8 1 -17 9 -20 8 -3 14 1 14 11 0 12 7 14 31
9 28 -5 31 -4 26 15 -4 15 1 23 20 30 25 9 25 10 7 30 -15 16 -16 24 -6 39 13
22 2 33 -23 24 -11 -5 -18 0 -22 15 -6 24 -33 29 -33 5z m21 -44 c33 -18 22
-80 -15 -80 -45 0 -64 37 -35 69 23 24 24 24 50 11z"/>
<path d="M427 1124 c3 -9 -4 -12 -24 -11 -22 2 -28 -2 -28 -18 0 -13 -7 -20
-20 -20 -16 0 -20 -6 -18 -27 1 -16 -2 -28 -8 -28 -14 0 -11 -38 4 -43 9 -3 9
-7 0 -19 -15 -17 0 -38 28 -38 10 0 16 -7 15 -17 -1 -13 6 -18 23 -18 14 0 26
-6 29 -13 5 -17 31 -15 38 3 4 10 14 13 28 9 15 -3 28 1 37 12 9 11 9 15 2 10
-8 -4 -13 -2 -13 5 0 6 8 9 19 6 24 -6 36 19 20 39 -9 11 -7 16 7 21 26 11 29
34 4 40 -16 4 -18 8 -9 19 15 18 3 46 -18 42 -12 -2 -18 4 -18 17 0 11 -8 21
-17 23 -10 2 -18 -1 -18 -7 0 -18 -18 -13 -22 6 -2 9 -13 17 -25 18 -13 1 -19
-3 -16 -11z m68 -79 c40 -41 30 -94 -23 -113 -54 -18 -110 36 -91 88 21 54 72
66 114 25z"/>
<path d="M421 1026 c-8 -10 -11 -26 -7 -42 5 -20 12 -25 33 -22 14 2 31 11 37
21 23 36 -36 76 -63 43z"/>
<path d="M604 1122 c3 -5 -1 -15 -9 -22 -20 -17 -1 -50 29 -50 24 0 40 28 27
47 -8 13 -55 38 -47 25z m26 -32 c0 -5 -5 -10 -11 -10 -5 0 -7 5 -4 10 3 6 8
10 11 10 2 0 4 -4 4 -10z"/>
<path d="M672 1098 c4 -30 43 -33 43 -3 0 13 -8 21 -23 23 -20 3 -23 0 -20
-20z"/>
<path d="M1791 1103 c-8 -14 -13 -15 -19 -5 -11 16 -45 4 -38 -13 7 -18 -5
-27 -19 -15 -9 7 -17 5 -26 -7 -11 -13 -11 -17 -1 -20 19 -7 14 -23 -8 -23
-25 0 -26 -28 -2 -46 10 -8 12 -13 5 -14 -22 0 -15 -40 7 -40 15 0 19 -6 17
-22 -2 -19 2 -23 26 -21 17 1 27 -3 27 -11 0 -8 9 -16 20 -19 13 -3 20 0 20 9
0 17 17 19 22 2 6 -18 38 -1 38 21 0 14 5 18 19 14 23 -6 39 16 20 28 -11 7
-9 10 9 15 26 7 30 39 5 48 -15 6 -15 8 1 19 17 13 13 52 -5 41 -12 -7 -31 5
-24 17 4 5 13 5 25 -1 14 -7 23 -6 35 6 15 15 15 18 0 35 -18 19 -40 16 -49
-8 -5 -12 -9 -13 -20 -4 -11 9 -16 9 -21 1 -5 -8 -13 -5 -26 9 -24 25 -25 26
-38 4z m51 -70 c29 -34 31 -71 4 -98 -30 -30 -65 -32 -97 -7 -28 23 -30 73 -4
102 23 25 76 26 97 3z"/>
<path d="M1764 1006 c-3 -8 -4 -25 -2 -38 2 -18 9 -23 33 -23 28 0 30 3 30 35
0 31 -3 35 -28 38 -17 2 -29 -2 -33 -12z"/>
<path d="M1209 1100 c-1 -3 -1 -8 0 -12 0 -5 -3 -8 -8 -8 -5 0 -9 -13 -9 -30
1 -18 6 -30 15 -30 7 0 13 -5 13 -10 0 -7 16 -9 40 -6 22 3 40 1 40 -5 0 -11
37 -12 44 0 3 4 -1 16 -8 27 -12 15 -16 16 -30 5 -11 -9 -16 -10 -16 -2 0 6 5
11 11 11 6 0 7 5 2 13 -4 6 -8 19 -8 27 0 8 -6 14 -12 13 -7 -2 -13 1 -13 7 0
9 -59 10 -61 0z m61 -45 c0 -21 -19 -28 -36 -15 -10 9 -11 16 -3 26 12 15 39
8 39 -11z"/>
<path d="M1128 1043 c6 -32 21 -39 40 -19 19 18 6 39 -26 41 -14 1 -18 -4 -14
-22z"/>
<path d="M665 1040 c-13 -14 -21 -17 -31 -9 -16 13 -27 -4 -19 -31 5 -15 1
-22 -15 -28 l-21 -8 20 -18 c16 -14 18 -23 10 -37 -9 -17 -6 -19 23 -17 22 2
33 -1 33 -11 0 -8 6 -16 13 -18 6 -3 12 2 12 11 0 22 17 28 41 16 20 -11 21
-10 14 20 -6 27 -4 32 14 37 27 7 27 19 1 26 -20 5 -29 37 -10 37 6 0 10 5 10
11 0 7 -10 9 -25 6 -18 -3 -30 2 -39 14 -13 18 -13 18 -31 -1z m39 -46 c21 -8
21 -60 0 -68 -28 -11 -53 -6 -62 12 -21 40 16 74 62 56z"/>
<path d="M1077 1053 c-13 -12 -7 -41 9 -47 21 -8 21 -8 28 10 10 25 -20 55
-37 37z"/>
<path d="M848 998 c-13 -19 -18 -20 -30 -10 -20 16 -29 5 -22 -25 5 -19 2 -25
-15 -30 -27 -7 -27 -23 -1 -30 23 -6 26 -23 8 -41 -9 -9 -9 -12 1 -12 7 0 9
-5 5 -12 -6 -10 -4 -10 7 0 21 19 46 14 53 -10 l6 -23 18 24 c15 18 24 22 42
16 21 -7 22 -5 16 18 -5 20 -1 29 14 37 26 14 25 26 0 33 -17 4 -20 10 -14 32
6 24 4 26 -22 23 -19 -2 -29 2 -29 11 0 24 -21 23 -37 -1z m47 -54 c20 -21 16
-43 -11 -61 -19 -12 -24 -11 -45 5 -22 19 -22 20 -6 46 20 30 39 33 62 10z"/>
<path d="M1360 995 c0 -8 -7 -15 -16 -15 -10 0 -14 -6 -10 -15 3 -8 -3 -19
-12 -25 -14 -8 -15 -11 -3 -19 18 -12 4 -33 -17 -27 -22 7 -47 -8 -38 -23 9
-14 36 -15 36 -1 0 6 9 10 20 10 14 0 20 -7 20 -21 0 -16 4 -19 20 -14 14 5
20 2 20 -9 0 -19 17 -21 23 -3 3 9 7 9 19 -1 13 -10 16 -9 21 8 4 14 10 18 22
14 14 -6 16 -3 10 14 -5 16 -2 22 9 22 9 0 16 7 16 15 0 8 -5 15 -11 15 -6 0
-8 9 -4 20 4 14 2 20 -9 20 -10 0 -13 6 -10 15 4 10 0 15 -14 15 -11 0 -23 6
-25 13 -4 9 -8 8 -16 -3 -8 -12 -13 -12 -23 -2 -16 16 -28 15 -28 -3z m63 -26
c43 -23 50 -68 15 -93 -30 -21 -44 -20 -68 4 -27 27 -26 65 2 84 27 19 24 19
51 5z"/>
<path d="M1233 988 c-26 -13 -33 -35 -19 -65 17 -41 73 -24 80 24 2 10 -6 26
-17 36 -11 9 -20 17 -21 16 -1 0 -11 -5 -23 -11z m37 -28 c13 -8 13 -11 -2
-26 -14 -14 -20 -15 -33 -4 -12 10 -13 16 -4 26 13 16 19 17 39 4z"/>
<path d="M1240 945 c0 -8 5 -15 10 -15 6 0 10 7 10 15 0 8 -4 15 -10 15 -5 0
-10 -7 -10 -15z"/>
<path d="M1022 932 c4 -19 29 -23 35 -6 2 6 -6 14 -17 17 -16 4 -20 1 -18 -11z"/>
<path d="M1584 935 c-10 -24 4 -45 28 -45 23 0 28 -6 62 -77 17 -37 35 -42 60
-14 29 32 -5 72 -44 51 -11 -6 -21 -6 -24 -1 -4 5 -1 11 6 13 6 2 9 12 5 21
-4 11 -12 14 -23 10 -14 -5 -16 -3 -11 12 4 9 2 24 -4 31 -15 19 -48 18 -55
-1z m36 -15 c0 -5 -4 -10 -10 -10 -5 0 -10 5 -10 10 0 6 5 10 10 10 6 0 10 -4
10 -10z m50 -40 c0 -5 -5 -10 -11 -10 -5 0 -7 5 -4 10 3 6 8 10 11 10 2 0 4
-4 4 -10z m50 -60 c0 -5 -4 -10 -10 -10 -5 0 -10 5 -10 10 0 6 5 10 10 10 6 0
10 -4 10 -10z"/>
<path d="M1513 924 c-3 -8 -1 -20 5 -26 16 -16 42 -2 42 22 0 24 -38 28 -47 4z"/>
<path d="M322 901 c-19 -12 -11 -45 12 -49 24 -5 37 17 25 40 -11 20 -18 22
-37 9z"/>
<path d="M970 891 c-5 -11 -10 -22 -10 -25 0 -8 31 -36 40 -36 5 0 16 7 24 16
9 8 16 19 16 24 0 14 -30 40 -45 40 -8 0 -19 -9 -25 -19z m45 -10 c7 -12 -12
-24 -25 -16 -11 7 -4 25 10 25 5 0 11 -4 15 -9z"/>
<path d="M1550 870 c0 -6 -10 -8 -24 -4 -18 4 -25 1 -29 -16 -3 -11 -11 -19
-19 -18 -8 2 -12 -5 -11 -18 3 -25 -32 -40 -41 -18 -3 8 -17 14 -30 14 -31 0
-46 -41 -24 -63 17 -17 46 -18 52 0 3 7 12 13 21 13 18 0 20 -26 3 -33 -7 -3
-1 -10 15 -16 16 -6 25 -15 22 -21 -11 -17 5 -32 21 -19 11 9 15 8 20 -5 7
-17 34 -22 34 -6 0 5 13 7 30 3 25 -5 29 -3 24 11 -5 12 0 16 16 16 17 0 21 4
17 20 -3 12 1 24 11 29 12 7 13 12 4 23 -6 8 -9 24 -5 36 4 17 1 22 -16 22
-14 0 -19 5 -15 15 9 23 -5 38 -23 23 -12 -10 -17 -9 -24 5 -11 19 -29 23 -29
7z m45 -65 c14 -13 25 -33 25 -44 0 -26 -38 -61 -64 -61 -67 1 -85 95 -23 120
32 13 36 12 62 -15z m-185 -35 c0 -5 -4 -10 -9 -10 -6 0 -13 5 -16 10 -3 6 1
10 9 10 9 0 16 -4 16 -10z"/>
<path d="M1530 785 c-6 -8 -10 -22 -8 -32 4 -24 47 -24 62 0 9 15 7 21 -8 33
-25 18 -31 18 -46 -1z"/>
<path d="M400 860 c0 -5 -7 -10 -15 -10 -8 0 -15 -7 -15 -15 0 -8 -4 -15 -9
-15 -5 0 -4 -10 2 -23 12 -25 57 -53 57 -35 0 6 7 8 15 4 10 -3 15 1 15 13 0
11 6 22 13 25 10 5 10 7 0 12 -7 3 -13 12 -13 20 0 8 -7 14 -15 14 -8 0 -15 5
-15 10 0 6 -4 10 -10 10 -5 0 -10 -4 -10 -10z m24 -26 c20 -8 20 -28 0 -44
-12 -11 -18 -10 -31 3 -13 13 -14 19 -3 31 14 18 13 18 34 10z"/>
<path d="M549 863 c-1 -5 -1 -12 0 -17 1 -5 -6 -6 -15 -2 -22 9 -50 -14 -32
-25 10 -6 8 -9 -6 -9 -14 0 -17 -6 -14 -25 3 -13 0 -26 -6 -29 -7 -3 -5 -10 6
-18 9 -8 16 -23 15 -34 -2 -14 4 -18 19 -17 15 2 24 -4 27 -19 5 -17 9 -19 21
-9 9 8 16 8 20 2 4 -6 13 -8 21 -5 8 4 12 10 9 16 -4 5 4 8 17 6 18 -2 24 2
23 15 -1 9 4 17 11 17 18 0 26 25 12 39 -8 8 -8 11 1 11 18 0 14 28 -5 39 -12
7 -14 10 -4 11 11 0 11 3 1 15 -7 9 -19 14 -27 11 -7 -3 -13 1 -13 8 0 18 -27
28 -34 13 -5 -9 -7 -9 -12 1 -6 13 -33 17 -35 5z m61 -88 c10 -12 10 -18 0
-30 -27 -32 -71 -8 -56 30 3 8 14 15 24 15 11 0 25 -7 32 -15z"/>
<path d="M705 856 c-16 -12 -18 -19 -9 -43 8 -23 15 -27 39 -25 36 4 34 3 40
32 9 44 -31 65 -70 36z m35 -26 c0 -5 -4 -10 -10 -10 -5 0 -10 5 -10 10 0 6 5
10 10 10 6 0 10 -4 10 -10z"/>
<path d="M1845 830 c-8 -26 6 -43 31 -38 13 2 19 12 19 28 0 34 -40 41 -50 10z
m35 -9 c0 -6 -4 -13 -10 -16 -5 -3 -10 1 -10 9 0 9 5 16 10 16 6 0 10 -4 10
-9z"/>
<path d="M887 816 c-9 -22 19 -42 37 -26 19 15 10 40 -14 40 -10 0 -20 -6 -23
-14z"/>
<path d="M1314 815 c-4 -9 -2 -21 4 -27 15 -15 44 -1 40 19 -4 23 -36 29 -44
8z"/>
<path d="M1772 817 c-47 -21 -37 -81 16 -92 33 -6 59 37 42 70 -16 30 -29 35
-58 22z m37 -36 c12 -21 5 -31 -20 -31 -19 0 -29 17 -21 38 6 18 30 15 41 -7z"/>
<path d="M820 795 c-26 -31 13 -82 44 -56 22 18 20 48 -3 61 -25 13 -26 13
-41 -5z m40 -25 c0 -5 -7 -10 -15 -10 -8 0 -15 5 -15 10 0 6 7 10 15 10 8 0
15 -4 15 -10z"/>
<path d="M714 754 c-19 -19 -23 -28 -15 -34 10 -5 9 -11 -3 -23 -21 -21 -20
-39 2 -35 9 2 16 9 15 16 -2 8 4 9 21 2 47 -18 86 40 53 80 -20 25 -45 23 -73
-6z m61 -29 c0 -13 -8 -21 -22 -23 -13 -2 -23 1 -23 6 0 5 7 9 16 8 9 0 19 5
22 13 3 11 -2 12 -23 7 -18 -5 -25 -3 -20 4 12 19 50 7 50 -15z"/>
<path d="M1698 752 c-10 -2 -19 -7 -19 -10 -9 -54 -8 -58 23 -60 28 -2 47 10
48 29 0 15 -37 45 -52 41z m32 -38 c0 -8 -9 -14 -20 -14 -22 0 -28 26 -7 33
16 6 27 -1 27 -19z"/>
<path d="M959 687 c-28 -14 -38 -60 -18 -84 24 -28 60 -35 80 -17 26 24 24 49
-9 84 -25 26 -31 28 -53 17z"/>
<path d="M1117 662 c-11 -12 -15 -32 -12 -74 2 -44 -1 -60 -14 -72 -18 -17
-15 -18 -116 38 -27 16 -76 45 -108 67 -74 49 -70 29 9 -53 67 -69 141 -179
187 -276 28 -60 29 -67 25 -177 l-3 -115 76 0 76 0 12 41 c7 22 21 55 32 72
10 18 23 42 28 54 10 22 88 89 100 86 4 -1 8 7 8 18 2 16 -9 11 -62 -26 -80
-58 -111 -62 -137 -18 -27 44 -57 204 -65 339 -3 63 -9 114 -13 114 -4 0 -14
-8 -23 -18z"/>
<path d="M1271 374 c-24 -30 -25 -38 -11 -65 22 -39 100 -8 100 40 0 57 -52
72 -89 25z"/>
</g>
</svg>
